<svg xmlns="http://www.w3.org/2000/svg" data-name="Layer 1" viewBox="0 0 100 125" x="0px" y="0px"><title>Artboard 8</title><path d="M63.51,43.29c-4.66-1.64-5.83-.3-8.71-.92-1-.23-.59-1.8.44-1.57a18.17,18.17,0,0,0,3.29.33,20.46,20.46,0,0,1-1-3.09.33.33,0,0,0,0-.1v-.11a.59.59,0,0,1,0-.23s0,0,0-.05a.72.72,0,0,1,.12-.21l.07-.07.13-.1a.76.76,0,0,1,.78-.08l.07,0,.09.07a.83.83,0,0,1,.16.21h0a7.83,7.83,0,0,1,1.28,3.78,14.78,14.78,0,0,1,3.6.53C65,42,64.5,43.64,63.51,43.29Zm-.45,4.32c-3.12-1.62-6.43-2-8.58-4.69-.66-.82-1.81.34-1.16,1.15a13.88,13.88,0,0,0,9.74,5.17C64.11,49.33,64,48.09,63.06,47.61ZM34.13,34.76l2.15.09A40.87,40.87,0,0,0,32.54,48c-3.27.88-5.19,2.56-5.45,7.24-.06,1.05,1.6,1.05,1.63,0a5.85,5.85,0,0,1,3.73-5.48v.13c0,4.87,9,5.9,9.78,4.43a11,11,0,0,0,1-2.53c.4-1.43,1.24-1.79,1.49-1.43.43.63,1.38,3.17,1.81,3.7,1,1.2,3.3,1.2,4.55.49,2.22-1.26,1.69-3.76.45-6.19,3.26,1.29,5.28,3.72,6.28,8.09.23,1,1.56,1,1.63,0,.33-5.48-4.14-8.85-9-10.15a.45.45,0,0,0-.16,0c-.89-1.33-1.83-2.5-2.41-3.22s-1.8.34-1.15,1.15a30.25,30.25,0,0,1,1.89,2.64c.44.69,2.87,5.69.43,5.67-.54,0-1.62-1-1.92-1.42a13.36,13.36,0,0,0-1.34-1.84c-2.25-2.07-3.26,0-4.62,3-.46,1-3.35.59-4,.47-3.61-.7-3.27-2.88-2.6-6.07a58,58,0,0,1,3.53-11.75c8.42.42,16.86,1,24.94-.4l-.74.81a.82.82,0,0,0,.57,1.39c1,.12,4.81-.59,5.17-1.13-.59.88.82,1.69,1.4.83a5.23,5.23,0,0,0,1-1.69.83.83,0,0,0-.57-1c-1.67-.53-3.2.46-4.79,1l.88-1a.82.82,0,0,0-.79-1.36c-8.53,2-16.66.94-26.18.71.35-.68.71-1.34,1.11-2,.55-.89-.85-1.71-1.41-.82s-1.05,1.79-1.55,2.76c-1,0-2,0-3,0A.82.82,0,0,0,34.13,34.76Zm.29-7.18q10,0,20.09.21a.82.82,0,0,0,0-1.63c-6.7-.13-11.95.28-20.09-.21C33.37,25.89,33.37,27.58,34.42,27.58ZM72.65,56.3c2.64,4.45,5.67,9.63,5.4,14.32-.26,4.37-2.61,5.58-4.75,3.53C72.66,82.07,65,90.9,57.11,91.37c-3.42.2-5.74-2.19-7.17-5.05a10.22,10.22,0,0,1-3.71,2.86c-2.7,1.27-8.29,2.56-10.65.11a4.79,4.79,0,0,1-1-1.92c-.7,2-1.81,3.67-3.58,4.32C27.47,93,25.49,90.15,24.66,87a7.48,7.48,0,0,1-3,2c-2.29.42-3.78-1.9-4.49-5.06-2.84.64-6.08-.82-6.76-3.87-1.08-4.77,2.19-11,4-15.18C16.1,61,18,57.16,20,53.44a41.85,41.85,0,0,1,.26-10.78c.17-1.23.13-3.83,1-4.85s3.55-1.68,3.39-1.42A3.51,3.51,0,0,0,25,35.27c-.21-.18-.41-.4-.6-.58l-2.16-2.07c-.75-.73.4-1.88,1.16-1.15l1.76,1.81c0-1.05,0-2.11.06-2.79.69-7,.19-10.85,5.91-15.41,8.43-6.72,22.41-9.46,32.05-3.91C73.48,17.1,76.1,28.48,73.93,39.25c1.78-1.92,4.13-4,6.09-3.29,2.69.91,2.59,6.76,2.35,9C81.91,49.12,77.15,57.66,72.65,56.3Zm-51-3c.8,1.46,1.6,2.91,2.39,4.37.33.6.82,1.31,1.1,2C28.31,58,30.64,56,34.61,55.53c8.88-1.11,17.72,3.58,24.42,9.18,1-3,2-7.34,3.82-9.44,1.51-1.71,4.49-2,6.76-2.69a.81.81,0,0,1,1.35.06c2.37,4,7-.21,8.38-3a14.85,14.85,0,0,0,1.47-7.41c-.1-1.57,0-3.25-1.54-3.95-1.33-.62-1.73,0-2.8.92a36.91,36.91,0,0,0-3.39,3.46A2,2,0,0,0,73,43c-.31,1-1.88.57-1.58-.43,3.28-10.69,2-22.82-8.09-29.36-8-5.2-17.52-4.09-27,.54a21,21,0,0,0-7.21,5.65,8.1,8.1,0,0,0-1.35,2.25,45.44,45.44,0,0,0-1.11,9,1.51,1.51,0,0,1,1.12.91c.66,1.14,1.21,2.36,1.81,3.52.48.94-.93,1.76-1.41.83-.3-.6-.61-1.2-.92-1.8-.09.75-.33,1.39-.88,1.58l-.09,1.09a.81.81,0,0,1-.41.7c-2.34,1.07-3,.81-3.57,2.85A35.68,35.68,0,0,0,21.61,53.3Zm28.56,29a12.91,12.91,0,0,0,.53-3.24c.24-5.62-1.31-3.11-1,.28A21.12,21.12,0,0,0,50.17,82.33ZM75,65.1c-1-2.19-2.06-4.34-3.15-6.48-.52-1-1.25-3.35-2.16-4.33l-.15,0a9.45,9.45,0,0,0-2,.61c-3.66,1.11-2.87.17-4.26,3.62-1,2.59-2.06,5.17-3.1,7.76a.83.83,0,0,1-1.36.36c-8.37-7.33-23.94-14.88-33.46-5.3a.82.82,0,0,1-1.28-.16l-3.23-5.89C18.8,59.12,16.91,63,15.25,67a46.21,46.21,0,0,0-3,9.23c-.21,1.18-.64,3-.08,4.15,1.09,2.23,2.94,2.42,4.7,1.57-.68-5.7.77-12.68,4.24-12.22,5,.66.56,11.38-1.68,13.14a3.19,3.19,0,0,1-.38.26c.06.31.11.62.19.92.72,2.82,1.65,3.58,3.92,1.91a6.93,6.93,0,0,0,1.14-1.11,11.16,11.16,0,0,1,0-2.31C24.42,81,26,76.75,28,79.83c.9,1.43-.35,3.88-2.06,5.89a3.75,3.75,0,0,0,.32,1.33c.71,1.49,3.17,3.29,5,2.56.82-.33,1.42-2.34,1.71-3.13a23.56,23.56,0,0,0,1.21-6.82c.05-1,1.68-1,1.63,0a30,30,0,0,0,0,3.67c.06,1,0,2.84.52,3.71,1.45,2.35,4.73,2,6.87,1.47a9.17,9.17,0,0,0,6-4c-1-3-2.62-9.75,0-11.29,2.3-1.34,2.88,1.77,3.09,3.53a13.5,13.5,0,0,1-1.34,8.09,9.1,9.1,0,0,0,2.52,3.69c2.73,2.2,5.85.88,8.47-.66,5.49-3.24,10.77-9.37,9.71-16.12-.13-.84,1-1.52,1.49-.63,1.38,2.74,3.08,2.7,3.29-.48A11.56,11.56,0,0,0,75,65.1ZM18.68,80.66c1.67-1.57,2.89-3.92,2.6-5.84C20.46,69.35,18.67,76,18.61,78A26.33,26.33,0,0,0,18.68,80.66ZM46.91,65.81c-2.39.23-4.35-.27-7.08-.44-1-.06-1.46,1.35-.43,1.57a24,24,0,0,0,7.51.5C47.94,67.34,48,65.71,46.91,65.81Zm-21-17.41A31,31,0,0,0,32,41.67l.37,0a.82.82,0,0,0,0-1.63c-.48,0-1,0-1.42.06a11.08,11.08,0,0,0,.63-2.86c.08-.87-1.1-1-1.52-.41a5.21,5.21,0,0,0-1,3.47c-.83.11-1.67.27-2.5.46-1,.25-.58,1.82.44,1.58a22.24,22.24,0,0,1,3.33-.55A22.9,22.9,0,0,1,25.1,47C24.25,47.59,25.06,49,25.92,48.4Z"/><text x="0" y="115" fill="#000000" font-size="5px" font-weight="bold" font-family="'Helvetica Neue', Helvetica, Arial-Unicode, Arial, Sans-serif"></text><text x="0" y="120" fill="#000000" font-size="5px" font-weight="bold" font-family="'Helvetica Neue', Helvetica, Arial-Unicode, Arial, Sans-serif"></text></svg>